<?xml version="1.0" standalone="no"?>
<!DOCTYPE svg PUBLIC "-//W3C//DTD SVG 1.1//EN" "http://www.w3.org/Graphics/SVG/1.1/DTD/svg11.dtd" >
<svg xmlns="http://www.w3.org/2000/svg" xmlns:xlink="http://www.w3.org/1999/xlink" version="1.1">
<metadata></metadata>
<defs>
<font id="phasme-3regular" horiz-adv-x="1228" >
<font-face units-per-em="2048" ascent="1638" descent="-410" />
<missing-glyph horiz-adv-x="696" />
<glyph horiz-adv-x="0" />
<glyph horiz-adv-x="682" />
<glyph unicode=" "  horiz-adv-x="696" />
<glyph unicode="&#x09;" horiz-adv-x="696" />
<glyph unicode="&#xa0;" horiz-adv-x="696" />
<glyph unicode="!" d="M567 1602l13 -1244h49l12 1241zM516 61q0 18 35 55.5t55 37.5t55 -37.5t35 -55.5t-35 -55t-55 -37t-55 37t-35 55z" />
<glyph unicode="&#x22;" />
<glyph unicode="#" />
<glyph unicode="'" horiz-adv-x="251" d="M219 1516q0 -5 -2 -7q-9 -54 -42 -114.5t-120 -155.5l-22 16q76 87 100 168h-4q-20 0 -55 37.5t-35 55.5t35 55t55 37t55 -37t35 -55z" />
<glyph unicode="(" />
<glyph unicode=")" />
<glyph unicode="*" />
<glyph unicode="," horiz-adv-x="258" d="M219 61q0 -4 -2 -6q-9 -54 -42 -114.5t-120 -155.5l-22 16q76 87 100 168h-4q-20 0 -55 37t-35 55t35 55.5t55 37.5t55 -37.5t35 -55.5z" />
<glyph unicode="-" horiz-adv-x="612" d="M84 449h446v73h-446v-73z" />
<glyph unicode="." horiz-adv-x="278" d="M49 61q0 18 35 55.5t55 37.5t55 -37.5t35 -55.5t-35 -55t-55 -37t-55 37t-35 55z" />
<glyph unicode="/" />
<glyph unicode="0" horiz-adv-x="1155" d="M578 -27q-104 0 -189.5 48.5t-141 127.5t-94 184.5t-55 214.5t-16.5 222q0 180 27.5 327.5t85 264t155 181.5t228.5 65t228.5 -65t154.5 -181.5t84.5 -264t27.5 -327.5q0 -120 -16.5 -231t-54.5 -215.5t-94 -181.5t-141 -123t-189 -46zM578 1565q-107 0 -188 -66 t-128 -180t-69.5 -251.5t-22.5 -297.5q0 -96 13.5 -196t45 -201t77 -179.5t116.5 -128t156 -49.5q86 0 156 47t116 123t77 176.5t44.5 202.5t13.5 205q0 126 -13.5 239.5t-44.5 216.5t-77 177t-116 118t-156 44z" />
<glyph unicode="1" horiz-adv-x="983" d="M707 23h194v-23h-803v23h262q29 0 50.5 4.5t36 10.5t24 19.5t14.5 24.5t7.5 32.5t3 36t0.5 42.5v1212q0 16 -2 27.5t-11.5 21.5t-25.5 8q-18 -2 -217 -171.5t-205 -172.5l-10 27l510 454q18 9 20 9q14 0 14 -13v-1402q0 -28 0.5 -42t3 -35.5t7.5 -32.5t15 -24.5t24.5 -20 t36.5 -11t51 -4.5z" />
<glyph unicode="2" horiz-adv-x="937" d="M831 270h25v-270h-795v25q63 186 164 364.5t312 474.5q9 12 29.5 41t27 39t22.5 32.5t21.5 32t16.5 28t15.5 29t11.5 26t10.5 29t6.5 28.5q9 65 9 102v123q0 47 -12.5 81t-31.5 53t-48.5 30.5t-56.5 14.5t-62 3q-123 0 -203 -69q-86 -74 -86 -117q0 -17 16 -35.5 t51 -46.5l103 -86l-2 -28l-256 178q86 105 135 149q120 107 260 107q125 0 194.5 -54.5t69.5 -193.5v-84q0 -69 -10 -131q-10 -72 -46 -139.5t-120 -180.5q-191 -262 -280 -421t-148 -330h567q51 0 65 20t19 86z" />
<glyph unicode="3" horiz-adv-x="858" d="M557 1071q95 0 157 -68t62 -180v-293q0 -99 -9.5 -179t-34 -153t-63 -122t-99 -78t-140.5 -29q-29 0 -55 4t-47 9.5t-42 17t-35.5 20t-31.5 25t-26 26t-23 28.5t-19.5 27t-18 27.5t-15.5 24.5l20 27q6 -7 22 -27t21.5 -27t20 -23.5t22 -22.5t22.5 -18.5t25.5 -17.5 t27.5 -13t33 -11t36.5 -5.5t42.5 -2.5q132 0 212 116t80 345v309q0 83 -45.5 141t-113.5 58q-54 0 -119.5 -32.5t-198.5 -133.5l4 41q196 136 201 139q150 135 150 225q0 41 -1 105t-1 94q0 35 -12 59.5t-30.5 34.5t-34 14t-30.5 4q-17 0 -32.5 -3t-28 -7t-29.5 -15.5 t-28 -19t-33 -27.5t-34.5 -32.5t-43 -42t-49.5 -47.5l-17 20q51 56 69.5 77t53 56t50 45.5t41.5 25.5t48.5 18.5t50.5 3.5q68 0 115 -34.5t47 -115.5v-182q0 -104 -110 -207q6 2 16 2z" />
<glyph unicode="4" horiz-adv-x="958" d="M739 1608q15 0 15 -17v-1552l-49 -53q-13 -13 -17 -13q-8 0 -8 23v715l-598 6l627 876q15 15 30 15zM680 784v693l-496 -699z" />
<glyph unicode="5" horiz-adv-x="823" d="M522 1071q95 0 157 -68t62 -180v-293q0 -99 -9.5 -179t-34 -153t-63 -122t-99 -78t-140.5 -29q-29 0 -55 4t-47 9.5t-42 17t-35.5 20t-31.5 25t-26 26t-23 28.5t-19.5 27t-18 27.5t-15.5 24.5l20 27q6 -7 22 -27t21.5 -27t20 -23.5t22 -22.5t22.5 -18.5t25.5 -17.5 t27.5 -13t33 -11t36.5 -5.5t42.5 -2.5q132 0 212.5 116t80.5 345v309q0 83 -46 141t-114 58q-53 0 -117.5 -31.5t-195.5 -128.5l-25 -21v752h420q50 0 63 19t21 87l6 50h25v-230h-490v-608q21 14 52 36.5t46.5 33.5t39.5 27.5t36.5 24.5t30.5 19t29.5 16t25 10t25 7t22.5 2z " />
<glyph unicode="6" horiz-adv-x="882" d="M582 1071q48 0 84.5 -18t60 -55.5t39 -82.5t23 -111t10 -127.5t2.5 -146.5q0 -105 -7.5 -183t-30 -152.5t-60 -121.5t-100 -75.5t-148.5 -28.5q-87 0 -151.5 36t-106.5 100t-68 164t-36.5 216.5t-10.5 268.5v252q0 76 4.5 122t20.5 81.5t29.5 52.5t49.5 55q38 40 77 75.5 t62.5 55.5t90 74t106.5 86l23 -23q-185 -166 -295 -282q-59 -62 -76.5 -110.5t-17.5 -150.5q0 -23 -1.5 -94t-2.5 -170q40 31 95 74.5t84.5 66.5t68 52.5t61 44t47 29.5t42 20.5t32.5 5.5zM434 23q161 0 227 112.5t66 362.5q0 13 0.5 59.5t0 71t-1.5 72t-5.5 76.5 t-11.5 69.5t-19.5 65t-29 48.5t-40.5 35t-53 11q-51 0 -146 -59.5t-274 -209.5q0 -387 62 -550.5t225 -163.5z" />
<glyph unicode="7" horiz-adv-x="944" d="M862 1577l-618 -1577h-70l606 1503h-583q-54 0 -66 -14.5t-18 -91.5l-7 -70h-24v250h780z" />
<glyph unicode="8" horiz-adv-x="808" d="M469 864q258 -89 258 -321v-246q0 -53 -20 -108.5t-58 -105t-100.5 -81t-138.5 -31.5q-87 0 -153 29.5t-102.5 78t-54.5 103.5t-18 115v246q0 48 16 92t39.5 76t59.5 62.5t66.5 50t70.5 40.5q-217 127 -217 303v166q0 108 88.5 191.5t214.5 83.5q68 0 130 -30t105 -94.5 t43 -150.5v-166q0 -21 -4.5 -42t-10 -37.5t-19 -37t-21 -32.5t-27.5 -31.5t-28 -28t-31.5 -27.5t-29 -23.5t-31 -23.5t-27.5 -20zM184 1333v-166q0 -58 20 -107.5t48 -80.5t60 -53.5t55 -31.5t34 -9q19 0 46 9.5t59.5 31.5t60 53t46 80.5t18.5 107.5v166q0 103 -66.5 171.5 t-167.5 68.5q-118 0 -165.5 -63t-47.5 -177zM424 10q68 0 114.5 22t70 64t33 89.5t9.5 111.5v246q0 65 -22.5 118.5t-54 85t-68.5 53.5t-64 30t-41 8q-35 0 -73.5 -14.5t-78 -46t-65.5 -92.5t-26 -142v-246q0 -58 16 -108.5t47 -91t83.5 -64t119.5 -23.5z" />
<glyph unicode="9" horiz-adv-x="882" d="M301 506q-48 0 -84.5 18t-60 55.5t-39 82.5t-23 111t-10 127.5t-2.5 146.5q0 98 10.5 179t36.5 153.5t67 121.5t105 78t148 29q58 0 105 -13.5t82 -41.5t61.5 -65t44.5 -91.5t30 -111.5t18 -135t8.5 -153t2.5 -174v-209q-1 -101 -12.5 -156.5t-29 -81.5t-63.5 -73 q-116 -119 -381 -334l-22 23q219 195 340 325q58 61 76 110.5t18 150.5q0 19 1.5 68.5t2.5 152.5q-40 -31 -95 -74.5t-84.5 -66.5t-68 -52.5t-61 -44t-47 -29.5t-42 -20.5t-32.5 -5.5zM428 1554q-61 0 -105.5 -12.5t-74.5 -41t-48.5 -64t-28 -94t-12.5 -117t-3 -146.5 q0 -14 -0.5 -59.5t-0.5 -71t1.5 -72.5t6 -76.5t11.5 -69t19 -64.5t28.5 -48.5t40.5 -35t53 -11.5q50 0 142.5 59t277.5 210q0 386 -67 550t-240 164z" />
<glyph unicode=":" horiz-adv-x="253" d="M37 725q0 18 35 55t55 37t55 -37t35 -55t-35 -55t-55 -37t-55 37t-35 55zM37 61q0 18 35 55.5t55 37.5t55 -37.5t35 -55.5t-35 -55t-55 -37t-55 37t-35 55z" />
<glyph unicode=";" horiz-adv-x="331" d="M180 633q-20 0 -55 37t-35 55t35 55t55 37t55 -37t35 -55t-35 -55t-55 -37zM180 154q20 0 55 -37.5t35 -55.5q0 -4 -2 -6q-9 -54 -42 -114.5t-120 -155.5l-22 16q76 87 100 168h-4q-20 0 -55 37t-35 55t35 55.5t55 37.5z" />
<glyph unicode="?" horiz-adv-x="858" d="M512 1608q125 0 194.5 -54.5t69.5 -193.5v-84q0 -39 -3 -72.5t-6 -58t-14.5 -54.5t-17 -45.5t-25.5 -49t-29 -47.5t-38.5 -58t-42.5 -64q-91 -137 -112 -185.5t-21 -125.5v-158h-74v162q0 83 24 140t120 204q21 33 56.5 83t49.5 72.5t32 60.5t24 77.5t6 93.5v123 q0 47 -12.5 81t-31.5 53t-48.5 30.5t-56.5 14.5t-62 3q-131 0 -203 -69q-86 -74 -86 -117q0 -17 16 -35.5t51 -46.5l103 -86l-2 -28l-256 178q86 105 135 149q120 107 260 107zM440 154q20 0 55 -37.5t35 -55.5t-35 -55t-55 -37t-55 37t-35 55t35 55.5t55 37.5z" />
<glyph unicode="A" horiz-adv-x="1579" d="M1350 23h168v-23h-664v23h188q33 0 54 6.5t31 16t11.5 29.5t-1.5 38.5t-11 50.5l-141 571h-397l-146 -577q-20 -70 -2.5 -102.5t97.5 -32.5h190v-23h-666v23h168q41 0 67 7.5t43 29t26 42t22 62.5l365 1376q-32 14 -76 14h-207v23h391l27 -121l336 -1352 q13 -42 40.5 -61.5t86.5 -19.5zM600 782h373l-164 662q-9 37 -25 63z" />
<glyph unicode="B" horiz-adv-x="1318" d="M1047 858q103 -19 158 -133.5t55 -269.5q0 -114 -30 -216.5t-91 -170.5t-140 -68h-938v23h187q72 0 92 27.5t20 92.5v1350q0 8 -3.5 16.5t-13 19.5t-34.5 18t-61 7h-187v23h912q63 0 105.5 -40.5t59.5 -99t17 -130.5q0 -96 -28.5 -178t-67.5 -97q-268 -102 -400 -147 q31 2 93 2q134 0 295 -29zM442 1526v-621q0 -9 7.5 -16.5t21.5 -7.5q10 0 16 2q190 58 271.5 88t230.5 96q47 21 72.5 83t25.5 138q0 96 -40 167t-113 71h-492zM961 51q63 0 113 60.5t76 152.5t26 193q0 87 -20 159.5t-66 126t-113 66.5q-91 16 -268 16q-43 0 -124 -2 t-116 -2l-27 -8v-762h519z" />
<glyph unicode="C" horiz-adv-x="1255" d="M154 813q0 -98 18 -203.5t58 -212t97 -191t142 -137.5t186 -53q80 0 203.5 75.5t310.5 221.5l25 -26q-202 -165 -327 -239.5t-224 -74.5q-122 0 -221.5 47.5t-165.5 126t-111 183t-64.5 215t-19.5 225.5q0 132 21 252t67 228t113.5 186.5t168 125t222.5 46.5 q165 0 274 -58t183 -190l-354 -256v35q83 58 150 127.5t67 111.5q0 187 -359 187q-104 0 -192.5 -65t-146 -172t-89.5 -241t-32 -274z" />
<glyph unicode="D" horiz-adv-x="1318" d="M829 1577q95 0 169 -39t122 -106.5t79.5 -166t44.5 -209t13 -243.5q0 -138 -13 -255.5t-44.5 -222t-79.5 -177.5t-122 -115.5t-169 -42.5h-768v23h189q24 0 42 4t30 8.5t19.5 16.5t12 20t6 27.5t2 30.5t0.5 36v1245q0 25 -0.5 36t-2 30.5t-6 27.5t-12 20t-19.5 16.5 t-30 8.5t-42 4h-189v23h768zM774 51q111 0 190.5 59t124.5 166.5t65 239t20 295.5q0 715 -400 715h-217q-24 0 -41.5 -2.5t-30 -5t-20.5 -11t-12.5 -14.5t-6 -22t-2 -26.5t-0.5 -33.5v-1245q0 -23 0.5 -33.5t2 -26.5t6 -22t12.5 -14.5t20.5 -11t30 -5t41.5 -2.5h217z" />
<glyph unicode="E" horiz-adv-x="1366" d="M1288 254l12 -18q-173 -173 -223 -236h-1016v23h168q33 0 55 7.5t33.5 16.5t17 31.5t6.5 38t1 49.5v1243v2q0 34 -1 49.5t-6.5 38t-17 31.5t-33.5 16.5t-55 7.5h-168v23h955q50 -63 223 -236l-12 -18q-258 203 -316 203h-401q-64 0 -75 -11t-11 -75v-514h315h2q35 0 50 1 t37.5 6t32 16.5t17 33.5t7.5 55v144h22v-541h-22v125q0 33 -7.5 55t-17.5 33.5t-32 17t-38 6.5t-49 1h-2h-315v-732q0 -72 11 -84t75 -12h463q57 0 315 203z" />
<glyph unicode="F" horiz-adv-x="1243" d="M1034 1577q50 -63 223 -236l-12 -18q-258 203 -315 203h-432q-56 0 -65 -10.5t-9 -73.5v-516h328h2q25 0 36 0.5t30.5 2t27.5 6t20 12t16.5 19.5t8.5 30t4 42v144h23v-541h-23v125q0 41 -9 65t-32 34t-42 12t-60 2h-2h-328v-713q0 -41 2 -60t12 -42t34 -32t65 -9h188v-23 h-664v23h168q33 0 55 7.5t33.5 16.5t17 31.5t6.5 38t1 49.5v1243v2q0 34 -1 49.5t-6.5 38t-17 31.5t-33.5 16.5t-55 7.5h-168v23h973z" />
<glyph unicode="G" horiz-adv-x="1353" d="M713 692h579v-22q-17 0 -28 -1t-35 -10t-38.5 -26t-27 -53t-12.5 -86v-596h-23l-57 305q-153 -131 -244 -180.5t-182 -49.5q-122 0 -222 47.5t-166 126t-111.5 183t-65 215t-19.5 225.5q0 132 21 252t67 228t113.5 186.5t168 125t222.5 46.5q150 0 293 -82 q51 -30 101 -82.5t83 -112.5l-307 -217v35q170 118 170 201q0 56 -63 106q-147 109 -316 109q-85 0 -159.5 -42.5t-128.5 -115.5t-93.5 -169t-59 -204.5t-19.5 -220.5q0 -81 13 -168t38.5 -177.5t68 -171t96.5 -143.5t128 -100t159 -37q77 0 151 40t189 134q72 59 72 152v41 q0 74 -3.5 116.5t-12 75t-28 45.5t-45.5 19t-71 6h-196v47z" />
<glyph unicode="H" horiz-adv-x="1636" d="M1274 1409v-1243q0 -25 0.5 -35.5t2 -30t6 -27.5t12 -20t19.5 -17t30 -9t42 -4h189v-23h-684v23h188q33 0 55 7.5t33.5 16.5t17 31.5t6.5 38t1 49.5v684h-748v-684q0 -41 2 -60t12 -42t34 -32t65 -9h207v-23h-703v23h189q24 0 42 4t30 8.5t19.5 16.5t12 20t6 27.5t2 30.5 t0.5 36v1243v2q0 25 -0.5 36t-2 30.5t-6 27.5t-12 20t-19.5 16.5t-30 8.5t-42 4h-189v23h703v-23h-207q-41 0 -65 -9t-34 -32t-12 -42t-2 -60v-2v-512h748v512v2q0 34 -1 49.5t-6.5 38t-17 31.5t-33.5 16.5t-55 7.5h-188v23h684v-23h-189q-24 0 -42 -4t-30 -9t-19.5 -17 t-12 -20t-6 -27.5t-2 -30t-0.5 -35.5v-2z" />
<glyph unicode="I" horiz-adv-x="806" d="M444 1409v-1243q0 -41 2 -60t12 -42t34 -32t65 -9h188v-23h-684v23h189q24 0 42 4t30 8.5t19.5 16.5t12 20t6 27.5t2 30.5t0.5 36v1243v2q0 25 -0.5 36t-2 30.5t-6 27.5t-12 20t-19.5 16.5t-30 8.5t-42 4h-189v23h684v-23h-188q-41 0 -65 -9t-34 -32t-12 -42t-2 -60v-2z " />
<glyph unicode="J" horiz-adv-x="905" d="M119 1577h725v-23h-209q-41 0 -65 -9t-34 -32t-12 -42t-2 -60v-2v-1030q-4 -228 -51 -281q-20 -24 -44.5 -42.5t-57 -31.5t-57.5 -22.5t-68 -14.5t-64.5 -8.5t-71.5 -4.5t-63.5 -1h-64.5v25q132 0 248.5 33t164.5 90q47 56 47 258v1030v2q0 25 -0.5 36t-2 30.5t-6 27.5 t-12 20t-19.5 16.5t-30 8.5t-42 4h-209v23z" />
<glyph unicode="K" horiz-adv-x="1624" d="M1395 23h168v-23h-664v23h188q30 0 42 15.5t7 39t-22 51.5l-4 6q0 1 -1 2t-1 2l-467 742q-17 -20 -199 -228v-510q0 -64 20.5 -92t92.5 -28h238v-23h-752v23h207q72 0 92 27.5t20 92.5v1266v2q0 25 -0.5 36t-2 30.5t-6 27.5t-12 20t-19.5 16.5t-30 8.5t-42 4h-207v23h752 v-23h-238q-41 0 -65 -9t-34 -32t-12 -42t-2 -60v-2v-680q315 347 590 715q42 59 44 77q3 22 -29 29q-17 4 -46 4h-108v23h543v-23h-127q-69 0 -119.5 -23t-106.5 -91q-151 -215 -387 -494l494 -776q57 -85 100.5 -116t104.5 -31z" />
<glyph unicode="L" horiz-adv-x="1366" d="M1315 254l12 -18q-173 -173 -223 -236h-1043v23h209q33 0 55 7.5t33.5 16.5t17 31.5t6.5 38t1 49.5v1243v2q0 34 -1 49.5t-6.5 38t-17 31.5t-33.5 16.5t-55 7.5h-209v23h725v-23h-208q-41 0 -65 -9t-34 -32t-12 -42t-2 -60v-2v-1243q0 -23 0.5 -33.5t2 -26.5t6 -22 t12.5 -14.5t20.5 -11t30 -5t41.5 -2.5h421q58 0 316 203z" />
<glyph unicode="M" horiz-adv-x="1826" d="M1466 1434v-1268q0 -41 2 -60t12 -42t34 -32t65 -9h168v-23h-664v23h189q24 0 42 4t30 8.5t19.5 16.5t12 20t6 27.5t2 30.5t0.5 36v1255l-411 -1208q-26 -76 -49 -76q-10 0 -20.5 14.5t-29.5 61.5l-428 1155v-1200q0 -75 25 -110t104 -35h207v-23h-682v23h168 q79 0 105 35t26 110v1241q0 76 -25 110.5t-106 34.5h-186v23h369l493 -1307l436 1307l4 -2v2h381v-23h-186q-72 0 -92.5 -27.5t-20.5 -92.5z" />
<glyph unicode="N" horiz-adv-x="1662" d="M920 1577h682v-23h-187q-79 0 -104 -35t-25 -110v-1419q0 -8 -7.5 -12.5t-14.5 -4.5q-23 0 -33 17l-805 1417v-1239q0 -75 25 -110t104 -35h207v-23h-682v23h168q79 0 105 35t26 110v1241q0 76 -25 110.5t-106 34.5h-187v23h365l813 -1444v1276q0 75 -26 110t-105 35 h-188v23z" />
<glyph unicode="O" horiz-adv-x="1331" d="M674 1608q118 0 218.5 -49t169 -130t116.5 -185.5t70 -213.5t22 -217q0 -132 -22 -254t-69 -229.5t-114.5 -187.5t-163.5 -126.5t-211 -46.5q-129 0 -236 47.5t-178.5 126.5t-121 184t-71.5 216.5t-22 226.5q0 131 23 252t72.5 228t120 186.5t173 125.5t224.5 46zM713 12 q105 0 193.5 63.5t146 167.5t89.5 234.5t32 267.5q0 157 -36 302.5t-101.5 261.5t-170 186t-231.5 70q-105 0 -196.5 -66t-152 -172.5t-94.5 -241t-34 -272.5q0 -163 37 -307t105.5 -254.5t175.5 -175t237 -64.5z" />
<glyph unicode="P" horiz-adv-x="1196" d="M926 1577q58 0 100.5 -26.5t66.5 -72t35 -99t11 -115.5q0 -109 -30.5 -204t-70.5 -110q-78 -30 -191.5 -75t-203.5 -79t-180 -65v-588q0 -64 20 -92t92 -28h250v-23h-764v23h207q72 0 92.5 27.5t20.5 92.5v1291q0 65 -20.5 92.5t-92.5 27.5h-207v23h865zM969 995 q47 21 72.5 91.5t25.5 160.5q0 54 -10 102t-30.5 88.5t-56.5 64.5t-83 24h-424v-692q0 -9 7.5 -17t21.5 -8q10 0 16 2q188 69 252.5 95t208.5 89z" />
<glyph unicode="Q" horiz-adv-x="1331" d="M879 -193q42 -15 178 -22.5t534 -11.5v-33q-116 1 -246.5 0t-201 -1.5t-140 0t-107.5 5t-60 12.5q-28 10 -60 37.5t-49.5 48t-55.5 70t-48 61.5q-115 11 -210.5 64t-159.5 131.5t-108 179.5t-64 207t-20 215q0 131 23 252t72.5 228t120 186.5t173 125.5t224.5 46 q118 0 218.5 -49t169 -130t116.5 -185.5t70 -213.5t22 -217q0 -128 -21 -247.5t-66 -226t-109 -186.5t-155 -129t-200 -55q117 -147 160 -162zM158 813q0 -163 37 -307t105.5 -254.5t175.5 -175t237 -64.5q105 0 193.5 63.5t146 167.5t89.5 234.5t32 267.5q0 157 -36 302.5 t-101.5 261.5t-170 186t-231.5 70q-105 0 -196.5 -66t-152 -172.5t-94.5 -241t-34 -272.5z" />
<glyph unicode="R" horiz-adv-x="1478" d="M1440 287l16 -21l-381 -319q-15 -10 -18 -10q-8 0 -8 22v801q0 30 -22.5 49.5t-51.5 19.5h-84l-428 -2v-684q0 -64 20 -92t92 -28h168v-23h-682v23h207q72 0 92.5 27.5t20.5 92.5v1291q0 65 -20.5 92.5t-92.5 27.5h-207v23h865q57 0 100 -23.5t67 -62.5t35 -83.5 t11 -92.5q0 -92 -30.5 -172.5t-70.5 -95.5q-80 -30 -208 -83t-193 -77q304 8 367 8q116 0 116 -160v-686zM463 1526v-606q0 -9 7.5 -17t21.5 -8q10 0 16 2q169 61 241.5 90.5t219.5 93.5q47 21 72.5 80.5t25.5 134.5q0 97 -44.5 163.5t-135.5 66.5h-424z" />
<glyph unicode="S" horiz-adv-x="1048" d="M555 774q140 -83 186 -118q128 -99 152 -231q6 -36 6 -75q0 -129 -103.5 -233.5t-230.5 -104.5q-125 0 -224 65t-163 179q-16 29 -29.5 72t-19 65.5t-19 94.5t-16.5 85q0 9 -18 9q-15 0 -15 -9l19 -321q13 -38 51 -84.5t94 -92t137 -76t166 -30.5q102 0 189 34 t145.5 91.5t91.5 134t33 160.5q0 40 -9.5 78t-21 68t-37 63t-42 53.5t-51.5 49t-51 41t-55 37t-48 29.5t-45 26q-16 9 -69 36.5t-89 48t-87 57.5t-82.5 71.5t-55 84t-23.5 101.5q0 77 38.5 152t117 127.5t176.5 52.5q113 0 199 -45t86 -99q0 -48 -44.5 -96.5t-148.5 -134.5 l8 -29l310 225q-16 36 -49 73t-80.5 71.5t-113 56t-136.5 21.5q-134 0 -238.5 -56.5t-159.5 -149.5t-55 -204q0 -37 11 -72t25.5 -62t45 -58t52.5 -50.5t67 -48.5t69.5 -43.5t78 -45.5t75.5 -44z" />
<glyph unicode="T" horiz-adv-x="1265" d="M1204 1577v-414h-22q-3 32 -7.5 80.5t-7 78t-7 67t-9.5 59.5t-13 42.5t-19 30t-25 9.5h-420v-1364q0 -25 0.5 -35.5t2 -30t6 -27.5t12 -20t19.5 -17t30 -9t42 -4h189v-23h-684v23h188q33 0 55 7.5t33.5 16.5t17 31.5t6.5 38t1 49.5v1364h-420q-14 0 -25 -9t-19 -30 t-13 -42.5t-9.5 -59t-7 -67t-7 -78t-7.5 -81.5h-23v414h1143z" />
<glyph unicode="U" horiz-adv-x="1636" d="M872 1577h703v-23h-189q-79 0 -104 -34.5t-25 -110.5l-2 -901q0 -117 -28 -211t-71.5 -153t-101.5 -99t-114 -56t-111 -16q-67 0 -128.5 14.5t-125 52.5t-109.5 97t-75 156.5t-29 222.5v893v2q0 25 -0.5 35.5t-2 30t-6 27.5t-12 20t-19.5 17t-30 9t-42 4h-189v23h684v-23 h-188q-33 0 -55 -7.5t-33.5 -16.5t-17 -31.5t-6.5 -38t-1 -49.5v-2v-893q0 -102 26 -186t66.5 -137.5t92.5 -91t101.5 -53t96.5 -15.5q53 0 103.5 13.5t102 48t89.5 86.5t62 136.5t24 190.5l2 915q-2 66 -29.5 98.5t-101.5 32.5h-207v23z" />
<glyph unicode="V" horiz-adv-x="1640" d="M1346 1618q2 0 6.5 -1.5t8.5 -6.5t1 -13l-47 -165l-432 -1424q-8 -35 -49 -35q-36 0 -46 35l-411 1401l-6 25l-13 36q-14 43 -39 63.5t-83 20.5h-209v23h725v-23h-209q-50 0 -74 -14.5t-25 -42t9 -67.5l405 -1364l397 1343q1 31 -14 43.5t-43 9.5q-20 -3 -111 -52.5 t-188 -105.5t-102 -59l-15 17l533 342q23 14 31 14z" />
<glyph unicode="W" horiz-adv-x="1906" d="M1829 1618q2 0 6 -1.5t8 -6.5t2 -13l-18 -69l-406 -1538q-6 -17 -24 -17q-21 0 -25 17l-289 1020l-268 -1020q-6 -17 -22 -17q-21 0 -23 17l-412 1487q-14 43 -40 60t-85 17h-167v23h1234v-23h-188q-74 0 -89.5 -29t7.5 -100l383 -1273l334 1265q6 37 -4.5 52t-36.5 12 q-20 -3 -117 -57.5t-197.5 -115t-107.5 -63.5l-14 17l528 342q23 14 31 14zM813 186l246 910l-113 366q-18 50 -48 71t-93 21h-264q-73 0 -89.5 -26t1.5 -94z" />
<glyph unicode="X" horiz-adv-x="1978" d="M1710 23h186v-23h-880v23h198q58 0 87 1t66.5 5.5t49.5 15.5t19.5 29.5t-5.5 48t-42 70.5h2l-361 526l-43 63l-471 -649q-35 -64 16.5 -87t200.5 -23h176v-23h-856v23h183q53 0 83 4.5t58 24t47 41.5t58 75q13 18 20 27l459 626l-400 580q-65 86 -87 107q-57 44 -138 46 h-244v23h856v-23h-114q-77 0 -119 -5t-67 -21t-17 -47.5t45 -83.5l332 -492l338 502l-3 2q56 86 28 115.5t-179 29.5h-121v23h795v-23h-180q-96 0 -150 -22.5t-111 -91.5l-389 -580l64 -92l391 -575q71 -95 98 -120q54 -50 121 -50z" />
<glyph unicode="Y" horiz-adv-x="1896" d="M1835 1577v-23h-180q-56 0 -86.5 -3.5t-62 -17.5t-55 -40.5t-52.5 -73.5l-391 -694v-559q0 -25 0.5 -35.5t2 -30t6 -27.5t12 -20t19.5 -17t30 -9t42 -4h189v-23h-684v23h188q33 0 55 7.5t33.5 16.5t17 31.5t6.5 38t1 49.5v532l-400 691q-30 49 -47 73t-43.5 49t-57 34 t-73.5 9h-244v23h857v-23h-115q-143 0 -186.5 -30.5t1.5 -118.5l357 -635l371 660q38 74 -0.5 99t-184.5 25h-121v23h795z" />
<glyph unicode="Z" horiz-adv-x="1187" d="M1104 434h22v-434h-1065v47l906 1483h-666q-15 0 -27.5 -5t-22 -17t-16.5 -24t-12.5 -34.5t-9.5 -40t-7.5 -49.5t-5.5 -53t-6 -60t-6 -63h-22v393h907v-47l-923 -1483h784q27 0 48 7.5t35.5 17.5t26 33t18 42t13 56.5t9.5 64.5t9 79t11 87z" />
<glyph unicode="[" />
<glyph unicode="\" />
<glyph unicode="]" />
<glyph unicode="^" />
<glyph unicode="_" />
<glyph unicode="`" />
<glyph unicode="a" horiz-adv-x="1077" d="M999 244l15 -19l-340 -278q-15 -10 -19 -10q-10 0 -10 22v236q-107 -121 -196 -171.5t-173 -50.5q-48 0 -87 24.5t-60.5 56.5t-36.5 71.5t-20 63t-6 36.5q-5 47 3 82.5t21.5 55t39 34t41 19t41.5 10.5q3 1 5 1.5t4 0.5q-121 153 -141 176q-1 1 -6.5 7.5t-6 9t0.5 6.5 q120 72 353.5 216t264.5 163q12 8 21 8q10 0 10 -13v-964zM481 829q-193 -109 -242 -147q-63 -50 -63 -98q0 -53 80 -148l49 8q72 11 127 24.5t106.5 35t79 52.5t27.5 71v223q0 45 -29 45q-4 0 -16 -4q-19 -5 -119 -62zM301 18q41 0 100 26t113 66t92.5 94t38.5 103v203 q-7 -8 -18 -16t-28 -15.5t-32 -14t-39 -14t-40.5 -12t-44.5 -11.5t-42.5 -10.5t-44 -10.5t-39.5 -9q-7 -2 -20 -4t-23 -4t-24.5 -5.5t-24.5 -8t-23.5 -11t-21 -15.5t-17 -21.5t-12 -27.5t-6 -35t1.5 -44q2 -13 6.5 -32t17 -50.5t28.5 -57t43 -44.5t59 -19z" />
<glyph unicode="b" horiz-adv-x="1050" d="M969 373q1 -201 -83.5 -302.5t-211.5 -101.5q-185 0 -266 131v-61l-50 -53q-13 -13 -16 -13q-8 0 -8 23v1489q0 12 -2 20.5t-10 15.5t-21 5q-12 -2 -76 -37t-130.5 -74t-71.5 -41l-13 19l369 247q14 9 18 9q11 0 11 -13v-915q36 28 95.5 77t100 81.5t86.5 66.5t80.5 51 t56.5 17q72 0 106 -48t34 -132zM895 360v447q0 75 -21.5 109t-52.5 34q-32 0 -60.5 -12.5t-109 -68.5t-243.5 -183v-356q0 -151 61 -233.5t186 -82.5q47 0 87.5 17t76 54t56 107.5t20.5 167.5z" />
<glyph unicode="c" horiz-adv-x="913" d="M815 260l16 -27q-36 -27 -95 -72.5t-95.5 -72.5t-80 -57t-76 -44t-56.5 -14q-28 0 -65 8t-88.5 35.5t-92.5 70.5t-70.5 122t-29.5 180q0 92 15.5 180t49 168.5t82.5 140.5t120 96t157 36q89 0 171 -50.5t107 -117.5l-256 -178l-2 28l103 86q45 40 52 53q5 10 5 21 q0 55 -68.5 87t-152.5 32q-73 0 -132 -46t-95 -122.5t-55 -168t-19 -188.5q0 -110 25.5 -193t59 -124.5t76.5 -67t68 -31t43 -5.5t48 14t112.5 68t218.5 153z" />
<glyph unicode="d" horiz-adv-x="1091" d="M995 244l15 -19l-340 -278q-15 -10 -19 -10q-8 0 -8 22v303q-1 0 -2 -1t-2 -1q-34 -27 -94 -76t-99.5 -80.5t-85.5 -66t-80.5 -51.5t-56.5 -17q-139 0 -139 181q0 47 -1 211.5t-1 248.5q0 103 24 182.5t65.5 127t93.5 71t112 23.5q92 0 168 -51t98 -140v662q0 12 -2 20.5 t-10 15.5t-21 5q-12 -2 -76 -37t-130.5 -74t-71.5 -41l-13 19l369 247q13 9 19 9q10 0 10 -13v-1599zM643 653v2q-15 154 -81.5 234t-166.5 80q-37 0 -70 -10t-64.5 -34.5t-54 -62.5t-36.5 -99.5t-14 -139.5v-447q0 -75 21.5 -109t51.5 -34q31 0 60.5 13t109.5 69.5 t244 183.5v344v10z" />
<glyph unicode="e" horiz-adv-x="913" d="M815 258l16 -29q-36 -27 -95 -72.5t-95.5 -72.5t-80 -57t-76 -44t-56.5 -14q-25 0 -56 6.5t-72 22.5t-78 47.5t-69 75t-51.5 113.5t-19.5 155q0 93 15.5 181.5t49 169.5t82.5 141.5t120 96.5t157 36q85 0 173 -58.5t109 -113.5l-622 -465q6 -67 22 -122.5t37 -91.5 t47.5 -63.5t50.5 -42t49 -23.5t39.5 -11.5t24.5 -2.5q12 0 22 1.5t23.5 6.5t24 10.5t30 17.5t35 23t44.5 32t53 38.5t67 49.5t80 59zM465 975q-73 0 -132 -46.5t-95 -123t-55 -169t-19 -190.5v-32l397 315q60 49 86.5 78.5t26.5 56.5q0 12 -9 29t-22 27q-68 55 -178 55z" />
<glyph unicode="f" horiz-adv-x="950" d="M440 168q0 -42 2 -61.5t12.5 -42.5t35.5 -32t67 -9h209v-23h-684v23h168q71 0 93 26.5t24 87.5l-2 819h-158v27h158v66q0 49 2 90.5t8 97t18.5 101t31 94.5t48.5 86.5t68.5 68t92.5 46.5t120 16q71 0 117.5 -47t54.5 -105l-310 -197l-12 17l242 182q-7 41 -40 76t-89 35 q-60 0 -108 -29t-77 -79.5t-49 -107t-29 -124.5t-12.5 -118.5t-3.5 -102.5v-66h307v-27h-307z" />
<glyph unicode="g" horiz-adv-x="1058" d="M870 172q61 0 100.5 -35t39.5 -110q0 -57 -21 -140q-26 -100 -76.5 -189t-114.5 -154.5t-138.5 -113.5t-152 -72t-151.5 -24t-132 26t-92.5 69.5t-52.5 96t-18 109.5t22 107.5t58 85t71.5 57t70.5 35.5q-89 0 -149.5 28.5t-63.5 71.5l295 197q-230 74 -230 354 q0 113 39.5 212t119 163.5t183.5 67.5h447v-27h-224q-32 0 -32 -16q0 -14 16 -25l-4 2q149 -102 149 -315q0 -114 -41 -212.5t-120.5 -160t-180.5 -61.5q-25 0 -57 -13q-55 -25 -115 -57.5t-114 -74t-54 -66.5q0 -15 26.5 -25t68.5 -10q71 0 172 32.5t202 92.5 q159 94 254 94zM215 561q8 -91 37 -157t61 -98t75.5 -50t66 -20.5t47.5 -2.5q114 0 182 103.5t68 249.5q0 31 -2 45q-9 91 -37.5 159t-61.5 103t-75 56t-68.5 25.5t-50.5 4.5q-110 0 -177 -108.5t-67 -254.5q0 -37 2 -55zM907 -106q25 95 25 143q0 39 -20.5 59.5t-51.5 20.5 q-12 0 -24 -2t-29 -8t-30 -11t-39 -17.5t-43 -21t-56 -28.5t-64 -33q-48 -24 -145 -59q-66 -25 -110.5 -46.5t-88.5 -53t-66 -73.5t-22 -94q0 -139 64.5 -220t181.5 -81q157 0 306 145t212 380z" />
<glyph unicode="h" horiz-adv-x="1417" d="M1321 244l14 -19l-340 -278q-15 -10 -18 -10q-8 0 -8 22v121q0 774 -2 792q-7 62 -49 74q-38 11 -93 -21.5t-281 -195.5q-42 -30 -65 -47v-516q0 -41 2 -60t12.5 -42t35.5 -32t67 -9h188v-23h-684v23h189q25 0 43.5 4t31 8.5t20.5 16.5t12.5 20.5t6.5 27t2.5 30.5t0.5 36 v1319q0 12 -2 20.5t-10 15.5t-21 5q-12 -2 -76.5 -37t-131 -74t-71.5 -41l-12 19l369 247q13 9 18 9q10 0 10 -13v-915q19 14 70 53t76.5 58t70.5 52.5t73 51t61 37.5t56.5 28.5t39.5 8.5q69 0 92.5 -44.5t23.5 -131.5v-797z" />
<glyph unicode="i" horiz-adv-x="866" d="M434 1266q-17 0 -46.5 30.5t-29.5 44.5q0 13 30 44.5t46 31.5t45 -31.5t29 -44.5q0 -14 -28.5 -44.5t-45.5 -30.5zM596 23h188v-23h-684v23h189q25 0 43.5 4t31 8.5t20.5 16.5t12.5 20.5t6.5 27t2.5 30.5t0.5 36v680q0 12 -2 20.5t-10 15.5t-21 5q-12 -2 -76.5 -37 t-131 -74t-71.5 -41l-12 19l369 247q13 9 18 9q10 0 10 -13v-831q0 -41 2 -60t12.5 -42t35.5 -32t67 -9z" />
<glyph unicode="j" horiz-adv-x="598" d="M442 1266q-17 0 -46 30.5t-29 44.5q0 13 29.5 44.5t45.5 31.5t45 -31.5t29 -44.5q0 -14 -28.5 -44.5t-45.5 -30.5zM477 1010q10 0 10 -13v-1030q0 -78 -1.5 -118.5t-11 -94.5t-28.5 -90q-18 -33 -70 -80t-151 -124t-121 -95l-22 23q148 125 214.5 189t86.5 101 q14 20 22.5 82.5t8.5 112.5v973q0 12 -2 20.5t-10 15.5t-21 5q-12 -2 -76.5 -37t-131 -74t-71.5 -41l-12 19l369 247q13 9 18 9z" />
<glyph unicode="k" horiz-adv-x="1429" d="M1333 244l15 -19l-340 -278q-15 -10 -19 -10q-8 0 -8 22v121q0 548 -2 567q-7 62 -49 74q-43 12 -102 -22t-349 -238v-295q0 -41 2 -60t12.5 -42t35.5 -32t67 -9h188v-23h-684v23h189q25 0 43.5 4t31 8.5t20.5 16.5t12.5 20.5t6.5 27t2.5 30.5t0.5 36v1319q0 12 -2 20.5 t-10 15.5t-21 5q-12 -2 -76.5 -37t-131 -74t-71.5 -41l-12 19l369 247q13 9 18 9q10 0 10 -13v-653h680v-22h-131h-7q-65 0 -126 -53t-360 -369q209 154 280 196q83 49 123 49q69 0 93 -44.5t24 -131.5v-571zM721 940h-242v-367q0 -15 18 -8q8 4 19 13q246 256 285 305 q37 48 17 56q-8 3 -74 1h-23z" />
<glyph unicode="l" horiz-adv-x="845" d="M596 23h168v-23h-664v23h189q25 0 43.5 4t31 8.5t20.5 16.5t12.5 20.5t6.5 27t2.5 30.5t0.5 36v1319q0 12 -2 20.5t-10 15.5t-21 5q-12 -2 -76.5 -37t-131 -74t-71.5 -41l-12 19l369 247q13 9 18 9q10 0 10 -13v-1470q0 -41 2 -60t12.5 -42t35.5 -32t67 -9z" />
<glyph unicode="m" horiz-adv-x="1984" d="M1888 244l15 -19l-340 -278q-15 -10 -19 -10q-10 0 -10 22v164q0 731 -2 749q-7 62 -47 74q-37 12 -86.5 -17t-265.5 -185q-69 -49 -109 -78v-500q0 -41 2 -60t12.5 -42t35.5 -32t67 -9h188v-23h-1229v23h189q25 0 43.5 4t31 8.5t20.5 16.5t12.5 20.5t6.5 27t2.5 30.5 t0.5 36v680q0 12 -2 20.5t-10 15.5t-21 5q-12 -2 -76.5 -37t-131 -74t-71.5 -41l-12 19l369 247q13 9 18 9q10 0 10 -13v-262q15 11 68 51.5t74.5 56.5t67 49t70 48.5t57 34.5t54.5 27t37 8q69 0 93 -44.5t24 -131.5v-132q26 20 101 77t115 86.5t97.5 69t95 57.5t60.5 18 q69 0 93 -44.5t24 -131.5v-797zM948 168q0 688 -2 704q-7 62 -47 74q-36 12 -83.5 -15t-241.5 -167q-60 -43 -95 -68v-530q0 -41 2 -60t12.5 -42t35.5 -32t67 -9h238q34 0 56 7.5t33.5 16.5t17 32t6.5 38.5t1 50.5z" />
<glyph unicode="n" horiz-adv-x="1417" d="M82 754l369 247q13 9 18 9q10 0 10 -13v-276q19 14 70 53t76.5 58t70.5 52.5t73 51t61 37.5t56.5 28.5t39.5 8.5q69 0 92.5 -44.5t23.5 -131.5v-797l279 207l14 -19l-340 -278q-15 -10 -18 -10q-10 0 -10 22v121q0 774 -2 792q-7 62 -50 74q-36 11 -84 -17t-257 -179 q-20 -14 -31 -22t-29.5 -21t-34.5 -25v-516q0 -41 2 -60t12.5 -42t35.5 -32t67 -9h188v-23h-684v23h189q25 0 43.5 4t31 8.5t20.5 16.5t12.5 20.5t6.5 27t2.5 30.5t0.5 36v680q0 12 -2 20.5t-10 15.5t-21 5q-12 -2 -76.5 -37t-131 -74t-71.5 -41z" />
<glyph unicode="o" horiz-adv-x="921" d="M467 1010q92 0 166 -47t118 -122.5t66.5 -162t22.5 -174.5q0 -104 -22.5 -197.5t-66 -169t-115 -120t-161.5 -44.5q-82 0 -149 30t-111.5 80t-75 116t-44 136.5t-13.5 143.5q0 104 23.5 197.5t69 169t121 120t171.5 44.5zM442 971q-88 0 -155 -69t-99 -173.5t-32 -224.5 q0 -77 21 -160.5t60 -159t105 -124t147 -48.5q88 0 152.5 66.5t94.5 167t30 217.5q0 85 -20.5 171.5t-59 163t-102.5 125t-142 48.5z" />
<glyph unicode="p" horiz-adv-x="1122" d="M479 203v-662q0 -41 2 -60t12.5 -42t35.5 -32t67 -9h188v-23h-643v23h148q25 0 43.5 4t31 8.5t20.5 16.5t12.5 20.5t6.5 27t2.5 30.5t0.5 36v1305q0 12 -2 20.5t-10 15.5t-21 5q-12 -2 -76.5 -37t-131 -74t-71.5 -41l-12 19l369 247q13 9 18 9q10 0 10 -13v-276 q36 28 96 77t100 81.5t86.5 66.5t81 51t56.5 17q139 0 139 -180l2 -461q1 -201 -83.5 -302.5t-211.5 -101.5q-57 0 -103.5 20t-78 55t-52 74.5t-32.5 84.5zM893 950q-32 0 -60.5 -12t-109.5 -69t-244 -183v-254q0 -113 25 -205t83 -152.5t140 -60.5q47 0 87.5 17t76 54 t56 107.5t20.5 167.5v447q0 75 -21.5 109t-52.5 34z" />
<glyph unicode="q" horiz-adv-x="1030" d="M834 -602h155v-23h-651v23h188q42 0 67 9t35.5 32t12.5 42t2 60v721q-36 -28 -96 -77t-100 -81.5t-86.5 -66.5t-81 -51t-56.5 -17q-139 0 -139 181l-2 460q0 103 24 182.5t65.5 127t93.5 71t112 23.5q57 0 99 -9t73 -29t50 -39.5t44 -53.5l49 65q13 13 17 13q8 0 8 -23 v-1397q0 -24 0.5 -36t2.5 -30.5t6.5 -27t12.5 -20.5t20.5 -16.5t31 -8.5t43.5 -4zM229 33q32 0 60.5 12t109.5 69t244 183v397q0 275 -248 275q-37 0 -70 -10t-64.5 -34.5t-54 -62.5t-36.5 -99.5t-14 -139.5v-447q0 -75 21.5 -109t51.5 -34z" />
<glyph unicode="r" horiz-adv-x="1021" d="M479 166q0 -24 0.5 -36t2.5 -30.5t6.5 -27t12.5 -20.5t20.5 -16.5t31 -8.5t43.5 -4h233v-23h-729v23h189q42 0 67 9t35.5 32t12.5 42t2 60v680q0 12 -2 20.5t-10 15.5t-21 5q-12 -2 -76.5 -37t-131 -74t-71.5 -41l-12 19l369 247q13 9 18 9q10 0 10 -13v-307 q27 27 82.5 83.5t89 89.5t76.5 71.5t75 57t54 18.5q50 0 67 -50.5t17 -183.5l-225 -153l-2 28l157 137q0 88 -13.5 129t-49.5 27q-10 -4 -23 -14t-24 -20t-12 -11l-269 -246v-487z" />
<glyph unicode="s" horiz-adv-x="755" d="M387 473q105 -65 136 -93q75 -67 75 -157q0 -84 -62 -150.5t-143 -66.5q-119 0 -199.5 107.5t-80.5 246.5q0 7 -20 4q-7 -2 -7 -4l-4 -204q19 -58 101 -120.5t186 -62.5q130 0 216.5 82t86.5 193q0 53 -20 97.5t-61.5 80.5t-65.5 52.5t-71 43.5q-7 4 -10 6 q-12 7 -44 23.5t-55.5 29.5t-54.5 34.5t-51 42.5t-34.5 50t-14.5 60q0 77 55 142t138 65q70 0 122 -29t52 -78q0 -64 -96 -133l2 -24l190 137q-20 36 -39.5 61.5t-47.5 50t-65 37.5t-83 13q-130 0 -215.5 -77t-85.5 -185q0 -46 14 -81t45 -62.5t58 -44.5t76.5 -43.5 t76.5 -43.5z" />
<glyph unicode="t" horiz-adv-x="919" d="M821 260l17 -27q-36 -27 -95 -72.5t-95.5 -72.5t-80.5 -57t-76.5 -44t-56.5 -14q-69 0 -93 45t-24 132v808h-235v27q131 0 159 5q54 11 72 57q20 49 21 229v104v41l33 35q12 12 16 12q8 0 8 -22v-461h422v-27h-422v-782q0 -51 2 -65q3 -30 13.5 -46.5t35.5 -23.5 q23 -7 55 5.5t106.5 61t217.5 152.5z" />
<glyph unicode="u" horiz-adv-x="1411" d="M1315 244l14 -19l-342 -278q-15 -10 -18 -10q-8 0 -8 22v297q-18 -14 -54 -41.5t-57.5 -43.5t-56 -41.5t-57 -41.5t-52 -36.5t-51 -32.5t-43.5 -23.5t-39 -17t-29 -5.5q-66 0 -92.5 46.5t-26.5 130.5v692q0 12 -1.5 20.5t-9.5 15.5t-21 5q-12 -2 -76 -37t-130 -74 t-71 -41l-12 19l369 247q13 9 18 9q10 0 10 -13v-75q0 -788 2 -807q8 -64 49 -76q36 -11 84.5 17.5t255.5 177.5q58 41 91 65v551q0 12 -2 20.5t-10 15.5t-21 5q-12 -2 -76.5 -37t-131 -74t-71.5 -41l-12 19l369 247q14 9 18 9q10 0 10 -13v-960z" />
<glyph unicode="v" horiz-adv-x="1234" d="M1143 1036q14 0 10 -12l-31 -76l-358 -962q-5 -13 -19 -13q-19 0 -24 13l-330 878q-23 56 -46.5 76.5t-72.5 20.5h-190v22h727v-22h-229q-90 0 -108 -27.5t11 -102.5l281 -755l295 805q2 15 -6 25t-27 7q-12 -2 -76 -37t-130.5 -73.5t-71.5 -40.5l-13 18l389 248 q12 8 19 8z" />
<glyph unicode="w" horiz-adv-x="1763" d="M1671 1036q14 0 10 -12l-34 -90l-338 -948q-8 -13 -19 -13q-16 0 -24 13l-240 635l-233 -631q-9 -17 -23 -17q-19 0 -25 17l-358 895q-22 49 -43 62.5t-76 13.5h-207v22h1276v-22h-217q-29 0 -49.5 -3.5t-33.5 -9t-18.5 -16.5t-7.5 -20t2 -26.5t8 -30.5t13 -36l277 -743 l274 801q5 16 -3.5 27.5t-27.5 8.5q-12 -2 -76 -37t-130.5 -73.5t-71.5 -40.5l-12 18l389 248q12 8 18 8zM793 76l213 600l-76 203q-22 52 -43 67t-74 15h-238q-56 0 -81.5 -12.5t-25 -36.5t12.5 -58l13 -31q0 -1 1 -2t1 -2z" />
<glyph unicode="x" horiz-adv-x="1388" d="M1137 25h190v-23h-1266v23h189q46 0 75 13.5t53 39t73 92.5l217 328l-232 368q-40 58 -67 76.5t-74 18.5h-191v22h1203v-22h-189q-64 0 -99 -21t-91 -96l-197 -312l234 -364q64 -86 95.5 -114.5t76.5 -28.5zM602 961q-76 0 -94 -19.5t10 -75.5l191 -297l196 310 q16 29 19.5 44.5t-9.5 24t-35.5 11t-68.5 2.5h-209zM829 25q78 0 92.5 21.5t-22.5 84.5l-209 332l-241 -365q-21 -43 4 -58t104 -15h234h38z" />
<glyph unicode="y" horiz-adv-x="1116" d="M1024 1010q10 0 10 -13v-1030q0 -78 -1.5 -118.5t-11 -94.5t-28.5 -90q-18 -33 -70 -80t-151 -124t-121 -95l-22 23q232 196 301 290q14 20 22.5 82.5t8.5 112.5v383q-18 -14 -54 -41.5t-57.5 -43.5t-56 -41.5t-57 -41.5t-52 -36.5t-51 -32.5t-43.5 -23.5t-39 -17 t-29 -5.5q-66 0 -91 46t-25 131v692q0 12 -2 20.5t-10 15.5t-21 5q-12 -2 -76.5 -37t-131 -74t-71.5 -41l-12 19l369 247q13 9 18 9q10 0 10 -13v-75q0 -788 2 -807q8 -64 49 -76q36 -11 84.5 17.5t255.5 177.5q58 41 91 65v551q0 12 -2 20.5t-10 15.5t-21 5 q-12 -2 -76.5 -37t-131 -74t-71.5 -41l-12 19l369 247q14 9 18 9z" />
<glyph unicode="z" horiz-adv-x="915" d="M809 242h25v-242h-752v27l641 913h-508q-7 0 -12.5 -2.5t-10 -9t-8 -13.5t-6 -19t-4.5 -22.5t-4 -28t-3 -31t-3 -35.5t-4 -38h-23v242h694v-27l-653 -921h527q15 0 26.5 1.5t20.5 7.5t15.5 10t11.5 17t8 21t6.5 28.5t5 33t5 41.5t5.5 47z" />
<glyph unicode="{" />
<glyph unicode="}" />
<glyph unicode="&#xa1;" />
<glyph unicode="&#xa8;" />
<glyph unicode="&#xab;" />
<glyph unicode="&#xad;" horiz-adv-x="612" d="M84 449h446v73h-446v-73z" />
<glyph unicode="&#xaf;" />
<glyph unicode="&#xb4;" d="M461 1391q121 -156 244 -271h34q-116 125 -209 271h-69z" />
<glyph unicode="&#xb7;" />
<glyph unicode="&#xb8;" />
<glyph unicode="&#xbb;" />
<glyph unicode="&#xbf;" />
<glyph unicode="&#xc0;" horiz-adv-x="1579" d="M758 1714q-123 115 -244 271h70q93 -146 209 -271h-35zM1350 23h168v-23h-664v23h188q33 0 54 6.5t31 16t11.5 29.5t-1.5 38.5t-11 50.5l-141 571h-397l-146 -577q-20 -70 -2.5 -102.5t97.5 -32.5h190v-23h-666v23h168q41 0 67 7.5t43 29t26 42t22 62.5l365 1376 q-32 14 -76 14h-207v23h391l27 -121l336 -1352q13 -42 40.5 -61.5t86.5 -19.5zM600 782h373l-164 662q-9 37 -25 63z" />
<glyph unicode="&#xc1;" horiz-adv-x="1579" d="M952 1985q-124 -159 -243 -271h-35q116 125 209 271h69zM1350 23h168v-23h-664v23h188q33 0 54 6.5t31 16t11.5 29.5t-1.5 38.5t-11 50.5l-141 571h-397l-146 -577q-20 -70 -2.5 -102.5t97.5 -32.5h190v-23h-666v23h168q41 0 67 7.5t43 29t26 42t22 62.5l365 1376 q-32 14 -76 14h-207v23h391l27 -121l336 -1352q13 -42 40.5 -61.5t86.5 -19.5zM600 782h373l-164 662q-9 37 -25 63z" />
<glyph unicode="&#xc2;" horiz-adv-x="1579" d="M758 1939q-101 -122 -209 -225h-35q116 125 209 271h70q95 -150 208 -271h-34q-108 103 -209 225zM1350 23h168v-23h-664v23h188q33 0 54 6.5t31 16t11.5 29.5t-1.5 38.5t-11 50.5l-141 571h-397l-146 -577q-20 -70 -2.5 -102.5t97.5 -32.5h190v-23h-666v23h168 q41 0 67 7.5t43 29t26 42t22 62.5l365 1376q-32 14 -76 14h-207v23h391l27 -121l336 -1352q13 -42 40.5 -61.5t86.5 -19.5zM600 782h373l-164 662q-9 37 -25 63z" />
<glyph unicode="&#xc4;" horiz-adv-x="1579" d="M614 1784q-16 0 -44.5 31t-28.5 45t28.5 44.5t44.5 30.5q17 0 45.5 -30.5t28.5 -44.5t-29 -45t-45 -31zM899 1784q-16 0 -45 31t-29 45t28.5 44.5t45.5 30.5t45.5 -30.5t28.5 -44.5t-29 -45t-45 -31zM1350 23h168v-23h-664v23h188q33 0 54 6.5t31 16t11.5 29.5t-1.5 38.5 t-11 50.5l-141 571h-397l-146 -577q-20 -70 -2.5 -102.5t97.5 -32.5h190v-23h-666v23h168q41 0 67 7.5t43 29t26 42t22 62.5l365 1376q-32 14 -76 14h-207v23h391l27 -121l336 -1352q13 -42 40.5 -61.5t86.5 -19.5zM600 782h373l-164 662q-9 37 -25 63z" />
<glyph unicode="&#xc7;" horiz-adv-x="1255" d="M555 -125q38 0 73.5 -6t72 -20t59 -42.5t22.5 -68.5q0 -215 -309 -215v28q138 0 187 41.5t49 133.5q0 35 -22.5 60t-55 34.5t-70 12.5t-67.5 -5l59 152q-127 21 -224.5 98.5t-154 190t-85 239.5t-28.5 262q0 132 21 252t67 228t113.5 186.5t168 125t222.5 46.5 q165 0 274 -58t183 -190l-354 -256v35q83 58 150 127.5t67 111.5q0 187 -359 187q-104 0 -192.5 -65t-146 -172t-89.5 -241t-32 -274q0 -98 18 -203.5t58 -212t97 -191t142 -137.5t186 -53q80 0 203.5 75.5t310.5 221.5l25 -26q-202 -165 -327 -239.5t-224 -74.5 q-31 0 -47 2z" />
<glyph unicode="&#xc8;" horiz-adv-x="1366" d="M627 1714q-123 115 -244 271h70q93 -146 209 -271h-35zM1288 254l12 -18q-173 -173 -223 -236h-1016v23h168q33 0 55 7.5t33.5 16.5t17 31.5t6.5 38t1 49.5v1243v2q0 34 -1 49.5t-6.5 38t-17 31.5t-33.5 16.5t-55 7.5h-168v23h955q50 -63 223 -236l-12 -18 q-258 203 -316 203h-401q-64 0 -75 -11t-11 -75v-514h315h2q35 0 50 1t37.5 6t32 16.5t17 33.5t7.5 55v144h22v-541h-22v125q0 33 -7.5 55t-17.5 33.5t-32 17t-38 6.5t-49 1h-2h-315v-732q0 -72 11 -84t75 -12h463q57 0 315 203z" />
<glyph unicode="&#xc9;" horiz-adv-x="1366" d="M821 1985q-124 -159 -243 -271h-35q116 125 209 271h69zM1288 254l12 -18q-173 -173 -223 -236h-1016v23h168q33 0 55 7.5t33.5 16.5t17 31.5t6.5 38t1 49.5v1243v2q0 34 -1 49.5t-6.5 38t-17 31.5t-33.5 16.5t-55 7.5h-168v23h955q50 -63 223 -236l-12 -18 q-258 203 -316 203h-401q-64 0 -75 -11t-11 -75v-514h315h2q35 0 50 1t37.5 6t32 16.5t17 33.5t7.5 55v144h22v-541h-22v125q0 33 -7.5 55t-17.5 33.5t-32 17t-38 6.5t-49 1h-2h-315v-732q0 -72 11 -84t75 -12h463q57 0 315 203z" />
<glyph unicode="&#xca;" horiz-adv-x="1366" d="M627 1939q-101 -122 -209 -225h-35q116 125 209 271h70q95 -150 208 -271h-34q-108 103 -209 225zM1288 254l12 -18q-173 -173 -223 -236h-1016v23h168q33 0 55 7.5t33.5 16.5t17 31.5t6.5 38t1 49.5v1243v2q0 34 -1 49.5t-6.5 38t-17 31.5t-33.5 16.5t-55 7.5h-168v23 h955q50 -63 223 -236l-12 -18q-258 203 -316 203h-401q-64 0 -75 -11t-11 -75v-514h315h2q35 0 50 1t37.5 6t32 16.5t17 33.5t7.5 55v144h22v-541h-22v125q0 33 -7.5 55t-17.5 33.5t-32 17t-38 6.5t-49 1h-2h-315v-732q0 -72 11 -84t75 -12h463q57 0 315 203z" />
<glyph unicode="&#xcb;" horiz-adv-x="1366" d="M483 1784q-16 0 -44.5 31t-28.5 45t28.5 44.5t44.5 30.5q17 0 45.5 -30.5t28.5 -44.5t-29 -45t-45 -31zM768 1784q-16 0 -45 31t-29 45t28.5 44.5t45.5 30.5t45.5 -30.5t28.5 -44.5t-29 -45t-45 -31zM1288 254l12 -18q-173 -173 -223 -236h-1016v23h168q33 0 55 7.5 t33.5 16.5t17 31.5t6.5 38t1 49.5v1243v2q0 34 -1 49.5t-6.5 38t-17 31.5t-33.5 16.5t-55 7.5h-168v23h955q50 -63 223 -236l-12 -18q-258 203 -316 203h-401q-64 0 -75 -11t-11 -75v-514h315h2q35 0 50 1t37.5 6t32 16.5t17 33.5t7.5 55v144h22v-541h-22v125q0 33 -7.5 55 t-17.5 33.5t-32 17t-38 6.5t-49 1h-2h-315v-732q0 -72 11 -84t75 -12h463q57 0 315 203z" />
<glyph unicode="&#xce;" horiz-adv-x="806" d="M403 1939q-104 -126 -208 -225h-35q116 125 209 271h69q93 -146 209 -271h-35q-108 103 -209 225zM444 1409v-1243q0 -41 2 -60t12 -42t34 -32t65 -9h188v-23h-684v23h189q24 0 42 4t30 8.5t19.5 16.5t12 20t6 27.5t2 30.5t0.5 36v1243v2q0 25 -0.5 36t-2 30.5t-6 27.5 t-12 20t-19.5 16.5t-30 8.5t-42 4h-189v23h684v-23h-188q-41 0 -65 -9t-34 -32t-12 -42t-2 -60v-2z" />
<glyph unicode="&#xd2;" horiz-adv-x="1331" d="M422 1985q121 -156 244 -271h34q-113 121 -208 271h-70zM674 1608q118 0 218.5 -49t169 -130t116.5 -185.5t70 -213.5t22 -217q0 -132 -22 -254t-69 -229.5t-114.5 -187.5t-163.5 -126.5t-211 -46.5q-129 0 -236 47.5t-178.5 126.5t-121 184t-71.5 216.5t-22 226.5 q0 131 23 252t72.5 228t120 186.5t173 125.5t224.5 46zM713 12q105 0 193.5 63.5t146 167.5t89.5 234.5t32 267.5q0 157 -36 302.5t-101.5 261.5t-170 186t-231.5 70q-105 0 -196.5 -66t-152 -172.5t-94.5 -241t-34 -272.5q0 -163 37 -307t105.5 -254.5t175.5 -175 t237 -64.5z" />
<glyph unicode="&#xd4;" horiz-adv-x="1331" d="M666 1939q-101 -122 -209 -225h-35q116 125 209 271h69q93 -146 209 -271h-35q-104 99 -208 225zM674 1608q118 0 218.5 -49t169 -130t116.5 -185.5t70 -213.5t22 -217q0 -132 -22 -254t-69 -229.5t-114.5 -187.5t-163.5 -126.5t-211 -46.5q-129 0 -236 47.5 t-178.5 126.5t-121 184t-71.5 216.5t-22 226.5q0 131 23 252t72.5 228t120 186.5t173 125.5t224.5 46zM713 12q105 0 193.5 63.5t146 167.5t89.5 234.5t32 267.5q0 157 -36 302.5t-101.5 261.5t-170 186t-231.5 70q-105 0 -196.5 -66t-152 -172.5t-94.5 -241t-34 -272.5 q0 -163 37 -307t105.5 -254.5t175.5 -175t237 -64.5z" />
<glyph unicode="&#xd6;" horiz-adv-x="1331" d="M449 1860q0 14 28.5 44.5t44.5 30.5q17 0 45.5 -30.5t28.5 -44.5t-29 -45t-45 -31t-44.5 31t-28.5 45zM733 1860q0 14 28.5 44.5t45.5 30.5t45.5 -30.5t28.5 -44.5t-29 -45t-45 -31t-45 31t-29 45zM674 1608q118 0 218.5 -49t169 -130t116.5 -185.5t70 -213.5t22 -217 q0 -132 -22 -254t-69 -229.5t-114.5 -187.5t-163.5 -126.5t-211 -46.5q-129 0 -236 47.5t-178.5 126.5t-121 184t-71.5 216.5t-22 226.5q0 131 23 252t72.5 228t120 186.5t173 125.5t224.5 46zM713 12q105 0 193.5 63.5t146 167.5t89.5 234.5t32 267.5q0 157 -36 302.5 t-101.5 261.5t-170 186t-231.5 70q-105 0 -196.5 -66t-152 -172.5t-94.5 -241t-34 -272.5q0 -163 37 -307t105.5 -254.5t175.5 -175t237 -64.5z" />
<glyph unicode="&#xdb;" horiz-adv-x="1636" d="M819 1939q-101 -122 -209 -225h-35q116 125 209 271h70q93 -146 209 -271h-35q-108 103 -209 225zM872 1577h703v-23h-189q-79 0 -104 -34.5t-25 -110.5l-2 -901q0 -117 -28 -211t-71.5 -153t-101.5 -99t-114 -56t-111 -16q-67 0 -128.5 14.5t-125 52.5t-109.5 97 t-75 156.5t-29 222.5v893v2q0 25 -0.5 35.5t-2 30t-6 27.5t-12 20t-19.5 17t-30 9t-42 4h-189v23h684v-23h-188q-33 0 -55 -7.5t-33.5 -16.5t-17 -31.5t-6.5 -38t-1 -49.5v-2v-893q0 -102 26 -186t66.5 -137.5t92.5 -91t101.5 -53t96.5 -15.5q53 0 103.5 13.5t102 48 t89.5 86.5t62 136.5t24 190.5l2 915q-2 66 -29.5 98.5t-101.5 32.5h-207v23z" />
<glyph unicode="&#xdc;" horiz-adv-x="1636" d="M676 1784q-16 0 -45 31t-29 45t28.5 44.5t45.5 30.5t45.5 -30.5t28.5 -44.5t-29 -45t-45 -31zM961 1784q-16 0 -45 31t-29 45t28.5 44.5t45.5 30.5q16 0 44.5 -30.5t28.5 -44.5t-28.5 -45t-44.5 -31zM872 1577h703v-23h-189q-79 0 -104 -34.5t-25 -110.5l-2 -901 q0 -117 -28 -211t-71.5 -153t-101.5 -99t-114 -56t-111 -16q-67 0 -128.5 14.5t-125 52.5t-109.5 97t-75 156.5t-29 222.5v893v2q0 25 -0.5 35.5t-2 30t-6 27.5t-12 20t-19.5 17t-30 9t-42 4h-189v23h684v-23h-188q-33 0 -55 -7.5t-33.5 -16.5t-17 -31.5t-6.5 -38t-1 -49.5 v-2v-893q0 -102 26 -186t66.5 -137.5t92.5 -91t101.5 -53t96.5 -15.5q53 0 103.5 13.5t102 48t89.5 86.5t62 136.5t24 190.5l2 915q-2 66 -29.5 98.5t-101.5 32.5h-207v23z" />
<glyph unicode="&#xe0;" horiz-adv-x="1077" d="M276 1391q121 -156 244 -271h35q-116 125 -209 271h-70zM999 244l15 -19l-340 -278q-15 -10 -19 -10q-10 0 -10 22v236q-107 -121 -196 -171.5t-173 -50.5q-48 0 -87 24.5t-60.5 56.5t-36.5 71.5t-20 63t-6 36.5q-5 47 3 82.5t21.5 55t39 34t41 19t41.5 10.5q3 1 5 1.5 t4 0.5q-121 153 -141 176q-1 1 -6.5 7.5t-6 9t0.5 6.5q120 72 353.5 216t264.5 163q12 8 21 8q10 0 10 -13v-964zM481 829q-193 -109 -242 -147q-63 -50 -63 -98q0 -53 80 -148l49 8q72 11 127 24.5t106.5 35t79 52.5t27.5 71v223q0 45 -29 45q-4 0 -16 -4q-19 -5 -119 -62z M301 18q41 0 100 26t113 66t92.5 94t38.5 103v203q-7 -8 -18 -16t-28 -15.5t-32 -14t-39 -14t-40.5 -12t-44.5 -11.5t-42.5 -10.5t-44 -10.5t-39.5 -9q-7 -2 -20 -4t-23 -4t-24.5 -5.5t-24.5 -8t-23.5 -11t-21 -15.5t-17 -21.5t-12 -27.5t-6 -35t1.5 -44q2 -13 6.5 -32 t17 -50.5t28.5 -57t43 -44.5t59 -19z" />
<glyph unicode="&#xe1;" horiz-adv-x="1077" d="M715 1391h-70q-93 -146 -209 -271h35q123 115 244 271zM999 244l15 -19l-340 -278q-15 -10 -19 -10q-10 0 -10 22v236q-107 -121 -196 -171.5t-173 -50.5q-48 0 -87 24.5t-60.5 56.5t-36.5 71.5t-20 63t-6 36.5q-5 47 3 82.5t21.5 55t39 34t41 19t41.5 10.5q3 1 5 1.5 t4 0.5q-121 153 -141 176q-1 1 -6.5 7.5t-6 9t0.5 6.5q120 72 353.5 216t264.5 163q12 8 21 8q10 0 10 -13v-964zM481 829q-193 -109 -242 -147q-63 -50 -63 -98q0 -53 80 -148l49 8q72 11 127 24.5t106.5 35t79 52.5t27.5 71v223q0 45 -29 45q-4 0 -16 -4q-19 -5 -119 -62z M301 18q41 0 100 26t113 66t92.5 94t38.5 103v203q-7 -8 -18 -16t-28 -15.5t-32 -14t-39 -14t-40.5 -12t-44.5 -11.5t-42.5 -10.5t-44 -10.5t-39.5 -9q-7 -2 -20 -4t-23 -4t-24.5 -5.5t-24.5 -8t-23.5 -11t-21 -15.5t-17 -21.5t-12 -27.5t-6 -35t1.5 -44q2 -13 6.5 -32 t17 -50.5t28.5 -57t43 -44.5t59 -19z" />
<glyph unicode="&#xe2;" horiz-adv-x="1077" d="M520 1346q-104 -127 -209 -226h-35q116 125 209 271h70q93 -146 209 -271h-35q-105 99 -209 226zM999 244l15 -19l-340 -278q-15 -10 -19 -10q-10 0 -10 22v236q-107 -121 -196 -171.5t-173 -50.5q-48 0 -87 24.5t-60.5 56.5t-36.5 71.5t-20 63t-6 36.5q-5 47 3 82.5 t21.5 55t39 34t41 19t41.5 10.5q3 1 5 1.5t4 0.5q-121 153 -141 176q-1 1 -6.5 7.5t-6 9t0.5 6.5q120 72 353.5 216t264.5 163q12 8 21 8q10 0 10 -13v-964zM645 627v223q0 45 -29 45q-4 0 -16 -4q-19 -5 -119 -62q-193 -109 -242 -147q-63 -50 -63 -98q0 -53 80 -148l49 8 q72 11 127 24.5t106.5 35t79 52.5t27.5 71zM645 307v203q-7 -8 -18 -16t-28 -15.5t-32 -14t-39 -14t-40.5 -12t-44.5 -11.5t-42.5 -10.5t-44 -10.5t-39.5 -9q-7 -2 -20 -4t-23 -4t-24.5 -5.5t-24.5 -8t-23.5 -11t-21 -15.5t-17 -21.5t-12 -27.5t-6 -35t1.5 -44 q2 -13 6.5 -32t17 -50.5t28.5 -57t43 -44.5t59 -19q41 0 100 26t113 66t92.5 94t38.5 103z" />
<glyph unicode="&#xe4;" horiz-adv-x="1077" d="M303 1266q0 14 28.5 44.5t45.5 30.5t45.5 -30.5t28.5 -44.5t-29 -45t-45 -31t-45 31t-29 45zM588 1266q0 14 28.5 44.5t45.5 30.5q16 0 44.5 -30.5t28.5 -44.5t-28.5 -45t-44.5 -31t-45 31t-29 45zM999 244l15 -19l-340 -278q-15 -10 -19 -10q-10 0 -10 22v236 q-107 -121 -196 -171.5t-173 -50.5q-48 0 -87 24.5t-60.5 56.5t-36.5 71.5t-20 63t-6 36.5q-5 47 3 82.5t21.5 55t39 34t41 19t41.5 10.5q3 1 5 1.5t4 0.5q-121 153 -141 176q-1 1 -6.5 7.5t-6 9t0.5 6.5q120 72 353.5 216t264.5 163q12 8 21 8q10 0 10 -13v-964zM481 829 q-193 -109 -242 -147q-63 -50 -63 -98q0 -53 80 -148l49 8q72 11 127 24.5t106.5 35t79 52.5t27.5 71v223q0 45 -29 45q-4 0 -16 -4q-19 -5 -119 -62zM301 18q41 0 100 26t113 66t92.5 94t38.5 103v203q-7 -8 -18 -16t-28 -15.5t-32 -14t-39 -14t-40.5 -12t-44.5 -11.5 t-42.5 -10.5t-44 -10.5t-39.5 -9q-7 -2 -20 -4t-23 -4t-24.5 -5.5t-24.5 -8t-23.5 -11t-21 -15.5t-17 -21.5t-12 -27.5t-6 -35t1.5 -44q2 -13 6.5 -32t17 -50.5t28.5 -57t43 -44.5t59 -19z" />
<glyph unicode="&#xe7;" horiz-adv-x="913" d="M383 -125q38 0 73.5 -6t72 -20t59 -42.5t22.5 -68.5q0 -215 -309 -215v28q138 0 187 41.5t49 133.5q0 35 -22.5 60t-55 34.5t-70 12.5t-67.5 -5l59 152q-36 6 -71.5 20t-78 45t-74.5 74t-53.5 113.5t-21.5 156.5q0 92 15.5 180t49 168.5t82.5 140.5t120 96t157 36 q89 0 171 -50.5t107 -117.5l-256 -178l-2 28l103 86q45 40 52 53q5 10 5 21q0 55 -68.5 87t-152.5 32q-73 0 -132 -46t-95 -122.5t-55 -168t-19 -188.5q0 -110 25.5 -193t59 -124.5t76.5 -67t68 -31t43 -5.5t48 14t112.5 68t218.5 153l16 -27q-36 -27 -95 -72.5t-95.5 -72.5 t-80 -57t-76 -44t-56.5 -14h-4z" />
<glyph unicode="&#xe8;" horiz-adv-x="913" d="M231 1391q121 -156 244 -271h35q-116 125 -209 271h-70zM815 258l16 -29q-36 -27 -95 -72.5t-95.5 -72.5t-80 -57t-76 -44t-56.5 -14q-25 0 -56 6.5t-72 22.5t-78 47.5t-69 75t-51.5 113.5t-19.5 155q0 93 15.5 181.5t49 169.5t82.5 141.5t120 96.5t157 36 q85 0 173 -58.5t109 -113.5l-622 -465q6 -67 22 -122.5t37 -91.5t47.5 -63.5t50.5 -42t49 -23.5t39.5 -11.5t24.5 -2.5q12 0 22 1.5t23.5 6.5t24 10.5t30 17.5t35 23t44.5 32t53 38.5t67 49.5t80 59zM465 975q-73 0 -132 -46.5t-95 -123t-55 -169t-19 -190.5v-32l397 315 q60 49 86.5 78.5t26.5 56.5q0 12 -9 29t-22 27q-68 55 -178 55z" />
<glyph unicode="&#xe9;" horiz-adv-x="913" d="M670 1391h-70q-93 -146 -209 -271h35q123 115 244 271zM815 258l16 -29q-36 -27 -95 -72.5t-95.5 -72.5t-80 -57t-76 -44t-56.5 -14q-25 0 -56 6.5t-72 22.5t-78 47.5t-69 75t-51.5 113.5t-19.5 155q0 93 15.5 181.5t49 169.5t82.5 141.5t120 96.5t157 36q85 0 173 -58.5 t109 -113.5l-622 -465q6 -67 22 -122.5t37 -91.5t47.5 -63.5t50.5 -42t49 -23.5t39.5 -11.5t24.5 -2.5q12 0 22 1.5t23.5 6.5t24 10.5t30 17.5t35 23t44.5 32t53 38.5t67 49.5t80 59zM465 975q-73 0 -132 -46.5t-95 -123t-55 -169t-19 -190.5v-32l397 315q60 49 86.5 78.5 t26.5 56.5q0 12 -9 29t-22 27q-68 55 -178 55z" />
<glyph unicode="&#xea;" horiz-adv-x="913" d="M475 1346q-104 -127 -209 -226h-35q116 125 209 271h70q93 -146 209 -271h-35q-105 99 -209 226zM815 258l16 -29q-36 -27 -95 -72.5t-95.5 -72.5t-80 -57t-76 -44t-56.5 -14q-25 0 -56 6.5t-72 22.5t-78 47.5t-69 75t-51.5 113.5t-19.5 155q0 93 15.5 181.5t49 169.5 t82.5 141.5t120 96.5t157 36q85 0 173 -58.5t109 -113.5l-622 -465q6 -67 22 -122.5t37 -91.5t47.5 -63.5t50.5 -42t49 -23.5t39.5 -11.5t24.5 -2.5q12 0 22 1.5t23.5 6.5t24 10.5t30 17.5t35 23t44.5 32t53 38.5t67 49.5t80 59zM164 446v-32l397 315q60 49 86.5 78.5 t26.5 56.5q0 12 -9 29t-22 27q-68 55 -178 55q-73 0 -132 -46.5t-95 -123t-55 -169t-19 -190.5z" />
<glyph unicode="&#xeb;" horiz-adv-x="913" d="M258 1266q0 14 28.5 44.5t45.5 30.5t45.5 -30.5t28.5 -44.5t-29 -45t-45 -31t-45 31t-29 45zM543 1266q0 14 28.5 44.5t44.5 30.5q17 0 45.5 -30.5t28.5 -44.5t-29 -45t-45 -31t-44.5 31t-28.5 45zM815 258l16 -29q-36 -27 -95 -72.5t-95.5 -72.5t-80 -57t-76 -44 t-56.5 -14q-25 0 -56 6.5t-72 22.5t-78 47.5t-69 75t-51.5 113.5t-19.5 155q0 93 15.5 181.5t49 169.5t82.5 141.5t120 96.5t157 36q85 0 173 -58.5t109 -113.5l-622 -465q6 -67 22 -122.5t37 -91.5t47.5 -63.5t50.5 -42t49 -23.5t39.5 -11.5t24.5 -2.5q12 0 22 1.5 t23.5 6.5t24 10.5t30 17.5t35 23t44.5 32t53 38.5t67 49.5t80 59zM465 975q-73 0 -132 -46.5t-95 -123t-55 -169t-19 -190.5v-32l397 315q60 49 86.5 78.5t26.5 56.5q0 12 -9 29t-22 27q-68 55 -178 55z" />
<glyph unicode="&#xee;" />
<glyph unicode="&#xf2;" horiz-adv-x="921" d="M217 1391q121 -156 244 -271h35q-116 125 -209 271h-70zM467 1010q92 0 166 -47t118 -122.5t66.5 -162t22.5 -174.5q0 -104 -22.5 -197.5t-66 -169t-115 -120t-161.5 -44.5q-82 0 -149 30t-111.5 80t-75 116t-44 136.5t-13.5 143.5q0 104 23.5 197.5t69 169t121 120 t171.5 44.5zM442 971q-88 0 -155 -69t-99 -173.5t-32 -224.5q0 -77 21 -160.5t60 -159t105 -124t147 -48.5q88 0 152.5 66.5t94.5 167t30 217.5q0 85 -20.5 171.5t-59 163t-102.5 125t-142 48.5z" />
<glyph unicode="&#xf4;" horiz-adv-x="921" d="M461 1346q-104 -127 -209 -226h-35q116 125 209 271h70q93 -146 209 -271h-35q-105 99 -209 226zM467 1010q92 0 166 -47t118 -122.5t66.5 -162t22.5 -174.5q0 -104 -22.5 -197.5t-66 -169t-115 -120t-161.5 -44.5q-82 0 -149 30t-111.5 80t-75 116t-44 136.5 t-13.5 143.5q0 104 23.5 197.5t69 169t121 120t171.5 44.5zM489 12q88 0 152.5 66.5t94.5 167t30 217.5q0 85 -20.5 171.5t-59 163t-102.5 125t-142 48.5q-88 0 -155 -69t-99 -173.5t-32 -224.5q0 -77 21 -160.5t60 -159t105 -124t147 -48.5z" />
<glyph unicode="&#xf6;" horiz-adv-x="921" d="M244 1266q0 14 28.5 44.5t44.5 30.5q17 0 45.5 -30.5t28.5 -44.5t-29 -45t-45 -31t-44.5 31t-28.5 45zM528 1266q0 14 28.5 44.5t45.5 30.5t45.5 -30.5t28.5 -44.5t-29 -45t-45 -31t-45 31t-29 45zM467 1010q92 0 166 -47t118 -122.5t66.5 -162t22.5 -174.5 q0 -104 -22.5 -197.5t-66 -169t-115 -120t-161.5 -44.5q-82 0 -149 30t-111.5 80t-75 116t-44 136.5t-13.5 143.5q0 104 23.5 197.5t69 169t121 120t171.5 44.5zM442 971q-88 0 -155 -69t-99 -173.5t-32 -224.5q0 -77 21 -160.5t60 -159t105 -124t147 -48.5q88 0 152.5 66.5 t94.5 167t30 217.5q0 85 -20.5 171.5t-59 163t-102.5 125t-142 48.5z" />
<glyph unicode="&#xfb;" horiz-adv-x="1411" d="M707 1346q-104 -127 -209 -226h-35q116 125 209 271h69q93 -146 209 -271h-35q-100 95 -208 226zM1315 244l14 -19l-342 -278q-15 -10 -18 -10q-8 0 -8 22v297q-18 -14 -54 -41.5t-57.5 -43.5t-56 -41.5t-57 -41.5t-52 -36.5t-51 -32.5t-43.5 -23.5t-39 -17t-29 -5.5 q-66 0 -92.5 46.5t-26.5 130.5v692q0 12 -1.5 20.5t-9.5 15.5t-21 5q-12 -2 -76 -37t-130 -74t-71 -41l-12 19l369 247q13 9 18 9q10 0 10 -13v-75q0 -788 2 -807q8 -64 49 -76q36 -11 84.5 17.5t255.5 177.5q58 41 91 65v551q0 12 -2 20.5t-10 15.5t-21 5q-12 -2 -76.5 -37 t-131 -74t-71.5 -41l-12 19l369 247q14 9 18 9q10 0 10 -13v-960z" />
<glyph unicode="&#xfc;" horiz-adv-x="1411" d="M563 1190q-16 0 -45 31t-29 45t28.5 44.5t45.5 30.5t45.5 -30.5t28.5 -44.5t-29 -45t-45 -31zM848 1190q-16 0 -45 31t-29 45t28.5 44.5t45.5 30.5t45.5 -30.5t28.5 -44.5t-29 -45t-45 -31zM1315 244l14 -19l-342 -278q-15 -10 -18 -10q-8 0 -8 22v297q-18 -14 -54 -41.5 t-57.5 -43.5t-56 -41.5t-57 -41.5t-52 -36.5t-51 -32.5t-43.5 -23.5t-39 -17t-29 -5.5q-66 0 -92.5 46.5t-26.5 130.5v692q0 12 -1.5 20.5t-9.5 15.5t-21 5q-12 -2 -76 -37t-130 -74t-71 -41l-12 19l369 247q13 9 18 9q10 0 10 -13v-75q0 -788 2 -807q8 -64 49 -76 q36 -11 84.5 17.5t255.5 177.5q58 41 91 65v551q0 12 -2 20.5t-10 15.5t-21 5q-12 -2 -76.5 -37t-131 -74t-71.5 -41l-12 19l369 247q14 9 18 9q10 0 10 -13v-960z" />
<glyph unicode="&#x2c6;" d="M319 1391q93 -146 209 -271h-34q-105 99 -209 226q-104 -127 -209 -226h-35q116 125 209 271h69z" />
<glyph unicode="&#x2dc;" />
<glyph unicode="&#x2000;" horiz-adv-x="992" />
<glyph unicode="&#x2001;" horiz-adv-x="1985" />
<glyph unicode="&#x2002;" horiz-adv-x="992" />
<glyph unicode="&#x2003;" horiz-adv-x="1985" />
<glyph unicode="&#x2004;" horiz-adv-x="661" />
<glyph unicode="&#x2005;" horiz-adv-x="496" />
<glyph unicode="&#x2006;" horiz-adv-x="330" />
<glyph unicode="&#x2007;" horiz-adv-x="330" />
<glyph unicode="&#x2008;" horiz-adv-x="248" />
<glyph unicode="&#x2009;" horiz-adv-x="397" />
<glyph unicode="&#x200a;" horiz-adv-x="110" />
<glyph unicode="&#x2010;" horiz-adv-x="612" d="M84 449h446v73h-446v-73z" />
<glyph unicode="&#x2011;" horiz-adv-x="612" d="M84 449h446v73h-446v-73z" />
<glyph unicode="&#x2012;" horiz-adv-x="612" d="M84 449h446v73h-446v-73z" />
<glyph unicode="&#x2013;" />
<glyph unicode="&#x2014;" />
<glyph unicode="&#x2018;" />
<glyph unicode="&#x2019;" horiz-adv-x="231" d="M158 1489q0 -4 -2 -6q-9 -54 -42 -115t-120 -156l-23 17q77 89 101 168h-4q-20 0 -55.5 37t-35.5 55t35.5 55t55.5 37t55 -37t35 -55z" />
<glyph unicode="&#x201a;" d="M219 61q0 -4 -2 -6q-9 -54 -42 -114.5t-120 -155.5l-22 16q76 87 100 168h-4q-20 0 -55 37t-35 55t35 55.5t55 37.5t55 -37.5t35 -55.5z" />
<glyph unicode="&#x201c;" />
<glyph unicode="&#x201d;" />
<glyph unicode="&#x201e;" d="M219 61q0 -4 -2 -6q-9 -54 -42 -114.5t-120 -155.5l-22 16q76 87 100 168h-4q-20 0 -55 37t-35 55t35 55.5t55 37.5t55 -37.5t35 -55.5z" />
<glyph unicode="&#x2022;" />
<glyph unicode="&#x2026;" horiz-adv-x="868" d="M51 61q0 18 35 55.5t55 37.5t55 -37.5t35 -55.5t-35 -55t-55 -37t-55 37t-35 55zM344 61q0 18 35 55.5t55 37.5t55 -37.5t35 -55.5t-35 -55t-55 -37t-55 37t-35 55zM637 61q0 18 35 55.5t55 37.5t55 -37.5t35 -55.5t-35 -55t-55 -37t-55 37t-35 55z" />
<glyph unicode="&#x202f;" horiz-adv-x="397" />
<glyph unicode="&#x2039;" />
<glyph unicode="&#x203a;" />
<glyph unicode="&#x205f;" horiz-adv-x="496" />
<glyph unicode="&#x25fc;" horiz-adv-x="983" d="M0 983h983v-983h-983v983z" />
</font>
</defs>
</svg>
